<svg width="967" height="659" viewBox="0 0 967 659" fill="none" xmlns="http://www.w3.org/2000/svg">
    <style>
        @keyframes animate-svg-stroke-1 {
        0% {
        stroke-dashoffset: 0;
        stroke-dasharray: 395.7127990722656px;
        }
        100% {
        stroke-dashoffset: 395.7127990722656px;
        stroke-dasharray: 395.7127990722656px;
        }}

        @keyframes animate-svg-fill-1 {
        0% {
        fill: transparent;
        }
        100% {
        fill: url("#paint4_linear_92_172");
        }}
        .svg-elem-1 {
        animation: animate-svg-stroke-1 1s ease-out 0s both, animate-svg-fill-1 0.7s
        cubic-bezier(0.165, 0.84, 0.44, 1) 0.8s both;}


        @keyframes animate-svg-stroke-2 {
        0% {
        stroke-dashoffset: 0;
        stroke-dasharray: 517.2330932617188px;
        }
        100% {
        stroke-dashoffset: 517.2330932617188px;
        stroke-dasharray: 517.2330932617188px;
        }
        }

        @keyframes animate-svg-fill-2 {
        0% {
        fill: transparent;
        }
        100% {
        fill: url("#paint2_linear_92_172");
        }
        }

        .svg-elem-2 {
        animation: animate-svg-stroke-2 1s ease-out 0.12s both, animate-svg-fill-2 0.7s
        cubic-bezier(0.165, 0.84, 0.44, 1) 0.9s both;
        }

        @keyframes animate-svg-stroke-3 {
        0% {
        stroke-dashoffset: 0;
        stroke-dasharray: 255.99717712402344px;
        }
        100% {
        stroke-dashoffset: 255.99717712402344px;
        stroke-dasharray: 255.99717712402344px;
        }
        }

        @keyframes animate-svg-fill-3 {
        0% {
        fill: transparent;
        }
        100% {
        fill: url("#paint1_linear_92_172");
        }
        }
        .svg-elem-3 {
        animation: animate-svg-stroke-3 1s ease-out 0.24s both, animate-svg-fill-3 0.7s
        cubic-bezier(0.165, 0.84, 0.44, 1) 1s both;
        }

        @keyframes animate-svg-stroke-4 {
        0% {
        stroke-dashoffset: 0;
        stroke-dasharray: 357.50213623046875px;
        }
        100% {
        stroke-dashoffset: 357.50213623046875px;
        stroke-dasharray: 357.50213623046875px;
        }

        }
        @keyframes animate-svg-fill-4 {
        0% {
        fill: transparent;
        }
        100% {
        fill: url("#paint0_linear_92_172");
        }
        }

        .svg-elem-4 {
        animation: animate-svg-stroke-4 1s ease-out 0.36s both, animate-svg-fill-4 0.7s
        cubic-bezier(0.165, 0.84, 0.44, 1) 1.1s both;
        }

        @keyframes animate-svg-stroke-5 {
        0% {
        stroke-dashoffset: 0;
        stroke-dasharray: 368.4822998046875px;
        }
        100% {
        stroke-dashoffset: 368.4822998046875px;
        stroke-dasharray: 368.4822998046875px;
        }
        }


        @keyframes animate-svg-fill-5 {
        0% {
        fill: transparent;
        }

        100% {
        fill: url("#paint3_linear_92_172");
        }
        }

        .svg-elem-5 {
        animation: animate-svg-stroke-5 1s ease-out 0.48s both, animate-svg-fill-5 0.7s
        cubic-bezier(0.165, 0.84, 0.44, 1) 1.2000000000000002s both;
        }

        @keyframes animate-svg-stroke-8 {
        0% {
        stroke-dashoffset: 1359.1680263507906px;
        stroke-dasharray: 1359.1680263507906px;
        }

        100% {
        stroke-dashoffset: 0;
        stroke-dasharray: 1359.1680263507906px;
        }
        }

        .svg-elem-8 {
        animation: animate-svg-stroke-8 1s ease-out 0.84s both, animate-svg-fill-8 0.7s
        cubic-bezier(0.165, 0.84, 0.44, 1) 1.5s both;
        }

        @keyframes animate-svg-stroke-10 {
        0% {
        stroke-dashoffset: 1332.513916015625px;
        stroke-dasharray: 1332.513916015625px;
        }

        100% {
        stroke-dashoffset: 0;
        stroke-dasharray: 1332.513916015625px;
        }}

        @keyframes animate-svg-fill-10 {
        0% {
        fill: transparent;
        }
        100% {
        fill: url("#filter0_bd_92_172");
        }
        }

        .svg-elem-10 {
        animation: animate-svg-stroke-10 1s ease-out 2.08s both, animate-svg-fill-10 2.7s
        cubic-bezier(0.165, 0.84, 0.44, 1) 1.7000000000000002s both;
        }

        @keyframes animate-svg-stroke-11 {
        0% {
        stroke-dashoffset: 1332.513916015625px;
        stroke-dasharray: 1332.513916015625px;
        }

        100% {
        stroke-dashoffset: 0;
        stroke-dasharray: 1332.513916015625px;
        }
        }

        @keyframes animate-svg-fill-11 {
        0% {
        fill: transparent;
        }
        100% {
        fill: rgb(255, 255, 255);
        }
        }
        .svg-elem-11 {
        animation: animate-svg-stroke-11 1s ease-out 1.08s both, animate-svg-fill-11 0.7s
        cubic-bezier(0.165, 0.84, 0.44, 1) 1.7000000000000002s both;
        }
        @keyframes animate-svg-stroke-12 {
        0% {
        opacity: 0;
        visibility: hidden;
        stroke-dashoffset: 1332.513916015625px;
        stroke-dasharray: 1332.513916015625px;
        }

        100% {
        opacity: 1;
        visibility: visible;
        stroke-dashoffset: 0;
        stroke-dasharray: 1332.513916015625px;
        }
        }

        @keyframes animate-svg-fill-12 {
        0% {
        fill: transparent;
        }

        100% {
        fill: rgb(255, 255, 255);
        }
        }

        .svg-elem-12 {
        animation: animate-svg-stroke-12 2s ease-out 1.08s both, animate-svg-fill-12 2.7s
        cubic-bezier(0.165, 0.84, 0.44, 1) 2.7000000000000002s both;
        }

        @keyframes animate-svg-stroke-30 {
        0% {
        opacity:0;
        width:0;
        }
        100% {
        opacity:1;
        width:100%;
        }
        }

        .svg-elem-22 {
        animation: animate-svg-stroke-30 1s ease-out 2.4s both, animate-svg-fill-30 0.7s
        cubic-bezier(0.165, 0.84, 0.44, 1) 3.7s both;
        }

        @keyframes animate-svg-stroke-27 {
        0% {
        opacity:0;
        width:0;
        }

        100% {
        opacity:1;
        width:100%;
        }}

        .svg-elem-21 {
        animation: animate-svg-stroke-27 1s ease-out 2.2s both, animate-svg-fill-27 0.7s
        cubic-bezier(0.165, 0.84, 0.44, 1) 3.4000000000000004s both;
        }
        @-webkit-keyframes animate-svg-opacity{
        0%{
        opacity:0;
        visibility:hidden;
        }
        100%{
        opacity:1;
        visibility:visible;
        }
        }
        .opacity-animation{
        animation: animate-svg-opacity 1.5s ease-in 1.5s both;
        }
</style>
    <g class="opacity-animation" filter="url(#filter0_bd_92_172)">
        <rect x="250.762" y="123.678" width="383.944" height="383.944" rx="191.972" stroke="white"
            stroke-width="2" stroke-dasharray="8 8" shape-rendering="crispEdges" />
    </g>
    <g class="opacity-animation" opacity="0.3" clip-path="url(#clip0_92_172)">
        <path fill-rule="evenodd" clip-rule="evenodd"
            d="M354.173 218.177C362.02 210.261 374.622 210.261 382.469 218.177C390.316 226.093 390.316 238.887 382.469 246.804C374.622 254.72 362.02 254.72 354.173 246.804C346.406 238.887 346.406 226.093 354.173 218.177Z"
            fill="#E42575" />
        <path fill-rule="evenodd" clip-rule="evenodd"
            d="M316.922 308.934C316.922 297.819 325.878 288.704 336.974 288.704C347.991 288.704 357.027 297.819 357.027 308.934C357.027 320.129 347.991 329.164 336.974 329.164C325.878 329.164 316.922 320.129 316.922 308.934Z"
            fill="#E42575" />
        <path fill-rule="evenodd" clip-rule="evenodd"
            d="M354.173 399.771C346.327 391.855 346.327 379.061 354.173 371.144C362.02 363.228 374.622 363.228 382.469 371.144C390.316 379.061 390.316 391.855 382.469 399.771C374.702 407.687 362.02 407.687 354.173 399.771Z"
            fill="#E42575" />
        <path fill-rule="evenodd" clip-rule="evenodd"
            d="M495.096 338.36C506.193 338.36 515.149 347.476 515.149 358.59C515.149 360.829 514.832 362.908 514.198 364.907C512.454 367.226 510.473 369.305 508.57 371.464C492.798 387.936 471.002 398.491 446.59 399.051C436.682 399.291 428.836 407.607 429.073 417.682C429.311 427.678 437.475 435.594 447.382 435.354C481.702 434.394 512.454 419.761 534.409 396.652C556.364 373.543 569.759 341.958 569.362 307.495C568.887 272.871 554.699 241.686 532.11 219.217C509.522 196.507 478.452 182.674 444.212 182.674C434.225 182.674 426.299 190.75 426.299 200.745C426.299 210.741 434.305 218.897 444.212 218.897C468.624 218.817 490.737 228.732 506.906 244.884C509.522 247.443 511.979 250.162 514.198 253.041C514.753 254.96 515.149 257.119 515.149 259.358C515.149 270.552 506.193 279.668 495.096 279.668C491.292 279.668 487.884 278.548 484.793 276.789C475.361 264.635 460.619 256.799 444.133 256.799C415.599 256.799 392.456 280.148 392.456 308.934C392.456 337.72 415.599 361.069 444.133 361.069C460.619 361.069 475.361 353.233 484.793 341.079C487.884 339.32 491.292 338.36 495.096 338.36ZM464.185 308.934C464.185 320.129 455.229 329.164 444.133 329.164C433.036 329.164 424.08 320.129 424.08 308.934C424.08 297.819 433.036 288.704 444.133 288.704C455.229 288.704 464.185 297.819 464.185 308.934Z"
            fill="#E42575" />
    </g>
    <rect class="opacity-animation" x="249.762" y="122.678" width="385.944" height="385.944"
        rx="192.972"
        fill="#A197AA"
        fill-opacity="0.2" />
    <path class="opacity-animation"
        d="M334.718 275.168V271.111H353.832V275.168H346.707V294.384H341.843V275.168H334.718ZM377.303 282.747C377.303 285.285 376.822 287.444 375.86 289.225C374.905 291.005 373.602 292.365 371.951 293.304C370.307 294.236 368.458 294.702 366.405 294.702C364.337 294.702 362.481 294.232 360.837 293.293C359.193 292.353 357.894 290.994 356.94 289.213C355.985 287.433 355.508 285.278 355.508 282.747C355.508 280.21 355.985 278.05 356.94 276.27C357.894 274.49 359.193 273.134 360.837 272.202C362.481 271.263 364.337 270.793 366.405 270.793C368.458 270.793 370.307 271.263 371.951 272.202C373.602 273.134 374.905 274.49 375.86 276.27C376.822 278.05 377.303 280.21 377.303 282.747ZM372.315 282.747C372.315 281.103 372.068 279.717 371.576 278.588C371.091 277.46 370.405 276.603 369.519 276.02C368.633 275.437 367.595 275.145 366.405 275.145C365.216 275.145 364.178 275.437 363.292 276.02C362.405 276.603 361.716 277.46 361.224 278.588C360.739 279.717 360.496 281.103 360.496 282.747C360.496 284.391 360.739 285.778 361.224 286.907C361.716 288.035 362.405 288.891 363.292 289.475C364.178 290.058 365.216 290.35 366.405 290.35C367.595 290.35 368.633 290.058 369.519 289.475C370.405 288.891 371.091 288.035 371.576 286.907C372.068 285.778 372.315 284.391 372.315 282.747ZM380.948 294.384V271.111H385.869V281.372H386.175L394.55 271.111H400.448L391.812 281.532L400.55 294.384H394.664L388.289 284.816L385.869 287.77V294.384H380.948ZM403.011 294.384V271.111H418.692V275.168H407.931V280.713H417.886V284.77H407.931V290.327H418.738V294.384H403.011ZM442.07 271.111V294.384H437.82L427.695 279.736H427.525V294.384H422.604V271.111H426.923L436.968 285.747H437.173V271.111H442.07ZM467.522 282.747C467.522 285.285 467.041 287.444 466.079 289.225C465.124 291.005 463.821 292.365 462.17 293.304C460.526 294.236 458.677 294.702 456.624 294.702C454.556 294.702 452.7 294.232 451.056 293.293C449.412 292.353 448.113 290.994 447.158 289.213C446.204 287.433 445.726 285.278 445.726 282.747C445.726 280.21 446.204 278.05 447.158 276.27C448.113 274.49 449.412 273.134 451.056 272.202C452.7 271.263 454.556 270.793 456.624 270.793C458.677 270.793 460.526 271.263 462.17 272.202C463.821 273.134 465.124 274.49 466.079 276.27C467.041 278.05 467.522 280.21 467.522 282.747ZM462.533 282.747C462.533 281.103 462.287 279.717 461.795 278.588C461.31 277.46 460.624 276.603 459.738 276.02C458.851 275.437 457.814 275.145 456.624 275.145C455.435 275.145 454.397 275.437 453.511 276.02C452.624 276.603 451.935 277.46 451.442 278.588C450.958 279.717 450.715 281.103 450.715 282.747C450.715 284.391 450.958 285.778 451.442 286.907C451.935 288.035 452.624 288.891 453.511 289.475C454.397 290.058 455.435 290.35 456.624 290.35C457.814 290.35 458.851 290.058 459.738 289.475C460.624 288.891 461.31 288.035 461.795 286.907C462.287 285.778 462.533 284.391 462.533 282.747ZM471.167 271.111H477.235L483.644 286.747H483.917L490.326 271.111H496.394V294.384H491.621V279.236H491.428L485.405 294.27H482.155L476.133 279.179H475.94V294.384H471.167V271.111ZM505.369 271.111V294.384H500.448V271.111H505.369ZM529.951 279.259H524.974C524.883 278.615 524.697 278.043 524.417 277.543C524.137 277.035 523.777 276.603 523.337 276.247C522.898 275.891 522.39 275.619 521.815 275.429C521.246 275.24 520.629 275.145 519.962 275.145C518.758 275.145 517.708 275.444 516.815 276.043C515.921 276.634 515.227 277.497 514.735 278.634C514.243 279.763 513.996 281.134 513.996 282.747C513.996 284.407 514.243 285.8 514.735 286.929C515.235 288.058 515.932 288.91 516.826 289.486C517.72 290.062 518.754 290.35 519.928 290.35C520.587 290.35 521.197 290.263 521.758 290.088C522.326 289.914 522.83 289.66 523.269 289.327C523.708 288.986 524.072 288.573 524.36 288.088C524.655 287.603 524.86 287.05 524.974 286.429L529.951 286.452C529.822 287.52 529.5 288.55 528.985 289.543C528.477 290.528 527.792 291.41 526.928 292.191C526.072 292.963 525.049 293.577 523.86 294.032C522.678 294.478 521.341 294.702 519.849 294.702C517.773 294.702 515.917 294.232 514.28 293.293C512.652 292.353 511.364 290.994 510.417 289.213C509.477 287.433 509.008 285.278 509.008 282.747C509.008 280.21 509.485 278.05 510.44 276.27C511.394 274.49 512.69 273.134 514.326 272.202C515.962 271.263 517.803 270.793 519.849 270.793C521.197 270.793 522.447 270.982 523.599 271.361C524.758 271.74 525.784 272.293 526.678 273.02C527.572 273.74 528.299 274.622 528.86 275.668C529.428 276.713 529.792 277.91 529.951 279.259ZM546.104 277.804C546.013 276.888 545.623 276.175 544.934 275.668C544.244 275.16 543.309 274.907 542.127 274.907C541.324 274.907 540.646 275.02 540.093 275.247C539.54 275.467 539.116 275.774 538.82 276.168C538.532 276.562 538.388 277.009 538.388 277.509C538.373 277.925 538.46 278.289 538.65 278.6C538.847 278.91 539.116 279.179 539.457 279.407C539.798 279.626 540.191 279.819 540.638 279.986C541.085 280.145 541.563 280.282 542.07 280.395L544.161 280.895C545.176 281.122 546.108 281.425 546.957 281.804C547.805 282.183 548.54 282.649 549.161 283.202C549.782 283.755 550.263 284.407 550.604 285.157C550.953 285.907 551.131 286.766 551.138 287.736C551.131 289.16 550.767 290.395 550.048 291.441C549.335 292.478 548.305 293.285 546.957 293.861C545.616 294.429 543.998 294.713 542.104 294.713C540.226 294.713 538.589 294.425 537.195 293.85C535.809 293.274 534.726 292.422 533.945 291.293C533.173 290.157 532.767 288.751 532.729 287.077H537.491C537.544 287.857 537.767 288.509 538.161 289.032C538.563 289.547 539.097 289.937 539.763 290.202C540.438 290.46 541.199 290.588 542.048 290.588C542.881 290.588 543.604 290.467 544.218 290.225C544.839 289.982 545.32 289.645 545.661 289.213C546.002 288.782 546.173 288.285 546.173 287.725C546.173 287.202 546.017 286.763 545.707 286.407C545.404 286.05 544.957 285.747 544.366 285.497C543.782 285.247 543.066 285.02 542.218 284.816L539.684 284.179C537.722 283.702 536.173 282.956 535.036 281.941C533.9 280.925 533.335 279.558 533.343 277.838C533.335 276.429 533.71 275.198 534.468 274.145C535.233 273.092 536.282 272.27 537.616 271.679C538.949 271.088 540.464 270.793 542.161 270.793C543.888 270.793 545.396 271.088 546.684 271.679C547.979 272.27 548.987 273.092 549.707 274.145C550.426 275.198 550.798 276.418 550.82 277.804H546.104Z"
        fill="white" />
    <path class="opacity-animation"
        d="M306.476 323.28V348.007H301.248V328.242H301.103L295.441 331.792V327.155L301.562 323.28H306.476ZM322.049 348.55C319.972 348.542 318.185 348.031 316.688 347.017C315.199 346.003 314.052 344.534 313.247 342.61C312.45 340.686 312.055 338.372 312.064 335.667C312.064 332.971 312.462 330.673 313.259 328.773C314.064 326.874 315.211 325.429 316.7 324.439C318.197 323.441 319.98 322.941 322.049 322.941C324.117 322.941 325.896 323.441 327.385 324.439C328.882 325.437 330.033 326.886 330.838 328.785C331.643 330.677 332.042 332.971 332.034 335.667C332.034 338.38 331.631 340.698 330.826 342.622C330.029 344.546 328.886 346.015 327.397 347.029C325.908 348.043 324.125 348.55 322.049 348.55ZM322.049 344.216C323.465 344.216 324.596 343.503 325.441 342.079C326.287 340.654 326.705 338.517 326.697 335.667C326.697 333.792 326.504 332.23 326.118 330.983C325.739 329.735 325.2 328.797 324.5 328.169C323.807 327.542 322.99 327.228 322.049 327.228C320.64 327.228 319.513 327.932 318.668 329.341C317.823 330.749 317.396 332.858 317.388 335.667C317.388 337.567 317.577 339.153 317.956 340.424C318.342 341.688 318.885 342.638 319.586 343.274C320.286 343.902 321.107 344.216 322.049 344.216ZM345.457 348.55C343.38 348.542 341.593 348.031 340.096 347.017C338.607 346.003 337.46 344.534 336.655 342.61C335.858 340.686 335.464 338.372 335.472 335.667C335.472 332.971 335.87 330.673 336.667 328.773C337.472 326.874 338.619 325.429 340.108 324.439C341.605 323.441 343.388 322.941 345.457 322.941C347.525 322.941 349.304 323.441 350.793 324.439C352.291 325.437 353.442 326.886 354.247 328.785C355.052 330.677 355.45 332.971 355.442 335.667C355.442 338.38 355.039 340.698 354.235 342.622C353.438 344.546 352.295 346.015 350.806 347.029C349.316 348.043 347.534 348.55 345.457 348.55ZM345.457 344.216C346.874 344.216 348.004 343.503 348.85 342.079C349.695 340.654 350.113 338.517 350.105 335.667C350.105 333.792 349.912 332.23 349.526 330.983C349.147 329.735 348.608 328.797 347.908 328.169C347.216 327.542 346.399 327.228 345.457 327.228C344.048 327.228 342.921 327.932 342.076 329.341C341.231 330.749 340.804 332.858 340.796 335.667C340.796 337.567 340.985 339.153 341.364 340.424C341.75 341.688 342.293 342.638 342.994 343.274C343.694 343.902 344.515 344.216 345.457 344.216ZM376.734 348.55C374.657 348.542 372.871 348.031 371.373 347.017C369.884 346.003 368.737 344.534 367.932 342.61C367.135 340.686 366.741 338.372 366.749 335.667C366.749 332.971 367.148 330.673 367.944 328.773C368.749 326.874 369.896 325.429 371.385 324.439C372.883 323.441 374.666 322.941 376.734 322.941C378.803 322.941 380.582 323.441 382.071 324.439C383.568 325.437 384.719 326.886 385.524 328.785C386.329 330.677 386.727 332.971 386.719 335.667C386.719 338.38 386.317 340.698 385.512 342.622C384.715 344.546 383.572 346.015 382.083 347.029C380.594 348.043 378.811 348.55 376.734 348.55ZM376.734 344.216C378.151 344.216 379.282 343.503 380.127 342.079C380.972 340.654 381.391 338.517 381.383 335.667C381.383 333.792 381.189 332.23 380.803 330.983C380.425 329.735 379.885 328.797 379.185 328.169C378.493 327.542 377.676 327.228 376.734 327.228C375.326 327.228 374.199 327.932 373.353 329.341C372.508 330.749 372.082 332.858 372.074 335.667C372.074 337.567 372.263 339.153 372.641 340.424C373.028 341.688 373.571 342.638 374.271 343.274C374.971 343.902 375.792 344.216 376.734 344.216ZM400.142 348.55C398.066 348.542 396.279 348.031 394.782 347.017C393.292 346.003 392.145 344.534 391.341 342.61C390.544 340.686 390.149 338.372 390.157 335.667C390.157 332.971 390.556 330.673 391.353 328.773C392.158 326.874 393.305 325.429 394.794 324.439C396.291 323.441 398.074 322.941 400.142 322.941C402.211 322.941 403.99 323.441 405.479 324.439C406.976 325.437 408.127 326.886 408.932 328.785C409.737 330.677 410.136 332.971 410.127 335.667C410.127 338.38 409.725 340.698 408.92 342.622C408.123 344.546 406.98 346.015 405.491 347.029C404.002 348.043 402.219 348.55 400.142 348.55ZM400.142 344.216C401.559 344.216 402.69 343.503 403.535 342.079C404.38 340.654 404.799 338.517 404.791 335.667C404.791 333.792 404.598 332.23 404.211 330.983C403.833 329.735 403.294 328.797 402.593 328.169C401.901 327.542 401.084 327.228 400.142 327.228C398.734 327.228 397.607 327.932 396.762 329.341C395.917 330.749 395.49 332.858 395.482 335.667C395.482 337.567 395.671 339.153 396.049 340.424C396.436 341.688 396.979 342.638 397.679 343.274C398.38 343.902 399.201 344.216 400.142 344.216ZM423.551 348.55C421.474 348.542 419.687 348.031 418.19 347.017C416.701 346.003 415.554 344.534 414.749 342.61C413.952 340.686 413.557 338.372 413.566 335.667C413.566 332.971 413.964 330.673 414.761 328.773C415.566 326.874 416.713 325.429 418.202 324.439C419.699 323.441 421.482 322.941 423.551 322.941C425.619 322.941 427.398 323.441 428.887 324.439C430.384 325.437 431.535 326.886 432.34 328.785C433.145 330.677 433.544 332.971 433.536 335.667C433.536 338.38 433.133 340.698 432.328 342.622C431.531 344.546 430.388 346.015 428.899 347.029C427.41 348.043 425.627 348.55 423.551 348.55ZM423.551 344.216C424.967 344.216 426.098 343.503 426.943 342.079C427.789 340.654 428.207 338.517 428.199 335.667C428.199 333.792 428.006 332.23 427.619 330.983C427.241 329.735 426.702 328.797 426.002 328.169C425.309 327.542 424.492 327.228 423.551 327.228C422.142 327.228 421.015 327.932 420.17 329.341C419.325 330.749 418.898 332.858 418.89 335.667C418.89 337.567 419.079 339.153 419.458 340.424C419.844 341.688 420.387 342.638 421.088 343.274C421.788 343.902 422.609 344.216 423.551 344.216ZM454.828 348.55C452.751 348.542 450.964 348.031 449.467 347.017C447.978 346.003 446.831 344.534 446.026 342.61C445.229 340.686 444.835 338.372 444.843 335.667C444.843 332.971 445.241 330.673 446.038 328.773C446.843 326.874 447.99 325.429 449.479 324.439C450.976 323.441 452.759 322.941 454.828 322.941C456.897 322.941 458.675 323.441 460.165 324.439C461.662 325.437 462.813 326.886 463.618 328.785C464.423 330.677 464.821 332.971 464.813 335.667C464.813 338.38 464.411 340.698 463.606 342.622C462.809 344.546 461.666 346.015 460.177 347.029C458.688 348.043 456.905 348.55 454.828 348.55ZM454.828 344.216C456.245 344.216 457.376 343.503 458.221 342.079C459.066 340.654 459.484 338.517 459.476 335.667C459.476 333.792 459.283 332.23 458.897 330.983C458.519 329.735 457.979 328.797 457.279 328.169C456.587 327.542 455.77 327.228 454.828 327.228C453.419 327.228 452.292 327.932 451.447 329.341C450.602 330.749 450.175 332.858 450.167 335.667C450.167 337.567 450.357 339.153 450.735 340.424C451.121 341.688 451.665 342.638 452.365 343.274C453.065 343.902 453.886 344.216 454.828 344.216ZM478.236 348.55C476.159 348.542 474.372 348.031 472.875 347.017C471.386 346.003 470.239 344.534 469.434 342.61C468.637 340.686 468.243 338.372 468.251 335.667C468.251 332.971 468.649 330.673 469.446 328.773C470.251 326.874 471.398 325.429 472.887 324.439C474.385 323.441 476.167 322.941 478.236 322.941C480.305 322.941 482.084 323.441 483.573 324.439C485.07 325.437 486.221 326.886 487.026 328.785C487.831 330.677 488.229 332.971 488.221 335.667C488.221 338.38 487.819 340.698 487.014 342.622C486.217 344.546 485.074 346.015 483.585 347.029C482.096 348.043 480.313 348.55 478.236 348.55ZM478.236 344.216C479.653 344.216 480.784 343.503 481.629 342.079C482.474 340.654 482.893 338.517 482.885 335.667C482.885 333.792 482.691 332.23 482.305 330.983C481.927 329.735 481.387 328.797 480.687 328.169C479.995 327.542 479.178 327.228 478.236 327.228C476.828 327.228 475.701 327.932 474.855 329.341C474.01 330.749 473.584 332.858 473.576 335.667C473.576 337.567 473.765 339.153 474.143 340.424C474.529 341.688 475.073 342.638 475.773 343.274C476.473 343.902 477.294 344.216 478.236 344.216ZM501.644 348.55C499.568 348.542 497.781 348.031 496.284 347.017C494.794 346.003 493.647 344.534 492.842 342.61C492.046 340.686 491.651 338.372 491.659 335.667C491.659 332.971 492.058 330.673 492.855 328.773C493.659 326.874 494.807 325.429 496.296 324.439C497.793 323.441 499.576 322.941 501.644 322.941C503.713 322.941 505.492 323.441 506.981 324.439C508.478 325.437 509.629 326.886 510.434 328.785C511.239 330.677 511.637 332.971 511.629 335.667C511.629 338.38 511.227 340.698 510.422 342.622C509.625 344.546 508.482 346.015 506.993 347.029C505.504 348.043 503.721 348.55 501.644 348.55ZM501.644 344.216C503.061 344.216 504.192 343.503 505.037 342.079C505.882 340.654 506.301 338.517 506.293 335.667C506.293 333.792 506.1 332.23 505.713 330.983C505.335 329.735 504.796 328.797 504.095 328.169C503.403 327.542 502.586 327.228 501.644 327.228C500.236 327.228 499.109 327.932 498.264 329.341C497.418 330.749 496.992 332.858 496.984 335.667C496.984 337.567 497.173 339.153 497.551 340.424C497.938 341.688 498.481 342.638 499.181 343.274C499.882 343.902 500.703 344.216 501.644 344.216ZM532.922 348.55C530.845 348.542 529.058 348.031 527.561 347.017C526.072 346.003 524.925 344.534 524.12 342.61C523.323 340.686 522.929 338.372 522.937 335.667C522.937 332.971 523.335 330.673 524.132 328.773C524.937 326.874 526.084 325.429 527.573 324.439C529.07 323.441 530.853 322.941 532.922 322.941C534.99 322.941 536.769 323.441 538.258 324.439C539.755 325.437 540.907 326.886 541.711 328.785C542.516 330.677 542.915 332.971 542.907 335.667C542.907 338.38 542.504 340.698 541.699 342.622C540.903 344.546 539.76 346.015 538.27 347.029C536.781 348.043 534.998 348.55 532.922 348.55ZM532.922 344.216C534.338 344.216 535.469 343.503 536.314 342.079C537.16 340.654 537.578 338.517 537.57 335.667C537.57 333.792 537.377 332.23 536.991 330.983C536.612 329.735 536.073 328.797 535.373 328.169C534.68 327.542 533.863 327.228 532.922 327.228C531.513 327.228 530.386 327.932 529.541 329.341C528.696 330.749 528.269 332.858 528.261 335.667C528.261 337.567 528.45 339.153 528.829 340.424C529.215 341.688 529.758 342.638 530.459 343.274C531.159 343.902 531.98 344.216 532.922 344.216ZM556.33 348.55C554.253 348.542 552.466 348.031 550.969 347.017C549.48 346.003 548.333 344.534 547.528 342.61C546.731 340.686 546.337 338.372 546.345 335.667C546.345 332.971 546.743 330.673 547.54 328.773C548.345 326.874 549.492 325.429 550.981 324.439C552.478 323.441 554.261 322.941 556.33 322.941C558.399 322.941 560.177 323.441 561.667 324.439C563.164 325.437 564.315 326.886 565.12 328.785C565.925 330.677 566.323 332.971 566.315 335.667C566.315 338.38 565.913 340.698 565.108 342.622C564.311 344.546 563.168 346.015 561.679 347.029C560.189 348.043 558.407 348.55 556.33 348.55ZM556.33 344.216C557.747 344.216 558.877 343.503 559.723 342.079C560.568 340.654 560.986 338.517 560.978 335.667C560.978 333.792 560.785 332.23 560.399 330.983C560.02 329.735 559.481 328.797 558.781 328.169C558.089 327.542 557.272 327.228 556.33 327.228C554.921 327.228 553.794 327.932 552.949 329.341C552.104 330.749 551.677 332.858 551.669 335.667C551.669 337.567 551.859 339.153 552.237 340.424C552.623 341.688 553.167 342.638 553.867 343.274C554.567 343.902 555.388 344.216 556.33 344.216ZM579.738 348.55C577.661 348.542 575.874 348.031 574.377 347.017C572.888 346.003 571.741 344.534 570.936 342.61C570.139 340.686 569.745 338.372 569.753 335.667C569.753 332.971 570.151 330.673 570.948 328.773C571.753 326.874 572.9 325.429 574.389 324.439C575.887 323.441 577.669 322.941 579.738 322.941C581.807 322.941 583.586 323.441 585.075 324.439C586.572 325.437 587.723 326.886 588.528 328.785C589.333 330.677 589.731 332.971 589.723 335.667C589.723 338.38 589.321 340.698 588.516 342.622C587.719 344.546 586.576 346.015 585.087 347.029C583.598 348.043 581.815 348.55 579.738 348.55ZM579.738 344.216C581.155 344.216 582.286 343.503 583.131 342.079C583.976 340.654 584.395 338.517 584.387 335.667C584.387 333.792 584.193 332.23 583.807 330.983C583.429 329.735 582.889 328.797 582.189 328.169C581.497 327.542 580.68 327.228 579.738 327.228C578.329 327.228 577.203 327.932 576.357 329.341C575.512 330.749 575.086 332.858 575.078 335.667C575.078 337.567 575.267 339.153 575.645 340.424C576.031 341.688 576.575 342.638 577.275 343.274C577.975 343.902 578.796 344.216 579.738 344.216Z"
        fill="white" />
    <path class="svg-elem-4"
        d="M479.705 608.979C481.086 619.938 491.108 627.767 501.958 625.694C562.041 614.218 617.654 585.492 661.884 542.824C706.115 500.156 736.821 445.612 750.449 385.979C752.91 375.211 745.447 364.915 734.545 363.141L689.252 355.77C678.35 353.995 668.16 361.427 665.445 372.133C654.961 413.472 633.136 451.218 602.253 481.01C571.371 510.802 532.865 531.256 491.176 540.247C480.378 542.576 472.586 552.492 473.967 563.451L479.705 608.979Z"
        fill="url(#paint0_linear_92_172)" />
    <path class="svg-elem-3"
        d="M699.554 462.117C709.149 467.589 721.425 464.271 726.279 454.349C749.137 407.619 760.138 355.861 758.156 303.671C756.174 251.482 741.279 200.707 714.943 155.846C709.35 146.32 696.858 143.943 687.705 150.127L649.683 175.818C640.531 182.002 638.209 194.398 643.574 204.053C661.063 235.528 670.956 270.763 672.33 306.931C673.703 343.099 666.511 378.982 651.459 411.693C646.842 421.727 650.097 433.911 659.692 439.383L699.554 462.117Z"
        fill="url(#paint1_linear_92_172)" />
    <path class="svg-elem-2"
        d="M716.972 205.186C727.218 201.059 732.236 189.374 727.468 179.41C705.016 132.484 671.261 91.7345 629.109 60.8969C586.958 30.0593 537.902 10.2249 486.38 3.03207C475.441 1.5048 465.823 9.82467 464.992 20.839L461.537 66.5972C460.705 77.6115 468.984 87.1256 479.884 88.9115C515.418 94.7335 549.185 108.844 578.397 130.215C607.608 151.586 631.279 179.497 647.585 211.601C652.588 221.449 664.161 226.458 674.407 222.331L716.972 205.186Z"
        fill="url(#paint2_linear_92_172)" />
    <path class="svg-elem-5"
        d="M180.013 451.248C170.198 456.314 166.293 468.416 171.971 477.891C191.004 509.655 215.506 537.869 244.393 561.202C278.475 588.731 317.913 608.863 360.2 620.319C402.486 631.774 446.694 634.301 490.011 627.739C526.726 622.177 562.119 610.189 594.582 592.375C604.266 587.062 607.004 574.643 601.088 565.316L576.509 526.565C570.593 517.237 558.27 514.557 548.463 519.64C526.161 531.199 502.072 539.044 477.147 542.82C445.617 547.596 413.438 545.757 382.657 537.418C351.877 529.08 323.17 514.425 298.362 494.387C278.75 478.547 261.915 459.616 248.497 438.38C242.597 429.042 230.606 425.135 220.791 430.201L180.013 451.248Z"
        fill="url(#paint3_linear_92_172)" />
    <path class="svg-elem-1"
        d="M517.574 29.6293C520.37 18.9434 513.982 7.94768 503.14 5.83375C447.749 -4.96671 390.34 -0.739399 336.94 18.2569C277.245 39.4927 225.322 78.2022 187.926 129.35C150.53 180.497 129.392 241.715 127.262 305.039C125.357 361.685 138.741 417.671 165.833 467.178C171.135 476.868 183.551 479.62 192.885 473.715L231.665 449.181C240.999 443.276 243.693 430.955 238.622 421.143C220.618 386.309 211.777 347.337 213.102 307.926C214.652 261.833 230.039 217.272 257.259 180.042C284.48 142.812 322.274 114.635 365.727 99.1775C402.879 85.9612 442.697 82.566 481.35 89.1566C492.239 91.0131 503.162 84.709 505.958 74.0231L517.574 29.6293Z"
        fill="url(#paint4_linear_92_172)" />
    <path class="svg-elem-21"
        d="M206.78 534.904C208.437 534.904 209.78 533.561 209.78 531.904C209.78 530.247 208.437 528.904 206.78 528.904V534.904ZM127.532 531.904V528.904H126.289L125.41 529.782L127.532 531.904ZM77.0564 566.379C77.0564 575.216 84.2198 582.379 93.0564 582.379C101.893 582.379 109.056 575.216 109.056 566.379C109.056 557.542 101.893 550.379 93.0564 550.379C84.2198 550.379 77.0564 557.542 77.0564 566.379ZM206.78 528.904H127.532V534.904H206.78V528.904ZM125.41 529.782L90.9351 564.258L95.1777 568.5L129.653 534.025L125.41 529.782Z"
        fill="#1481E0" />
    <path class="svg-elem-21"
        d="M204.094 94.1575C205.75 94.1575 207.094 95.5006 207.094 97.1575C207.094 98.8143 205.75 100.157 204.094 100.157V94.1575ZM124.845 97.1575V100.157H123.603L122.724 99.2788L124.845 97.1575ZM74.37 62.6822C74.37 53.8457 81.5335 46.6822 90.37 46.6822C99.2066 46.6822 106.37 53.8457 106.37 62.6822C106.37 71.5188 99.2066 78.6822 90.37 78.6822C81.5335 78.6822 74.37 71.5188 74.37 62.6822ZM204.094 100.157H124.845V94.1575H204.094V100.157ZM122.724 99.2788L88.2487 64.8035L92.4913 60.5609L126.967 95.0362L122.724 99.2788Z"
        fill="#FFDB15" />
    <path class="svg-elem-21"
        d="M676.897 90.5757C675.24 90.5757 673.897 91.9188 673.897 93.5757C673.897 95.2325 675.24 96.5757 676.897 96.5757V90.5757ZM756.145 93.5757V96.5757H757.388L758.266 95.697L756.145 93.5757ZM806.62 59.1004C806.62 50.2639 799.457 43.1004 790.62 43.1004C781.784 43.1004 774.62 50.2639 774.62 59.1004C774.62 67.937 781.784 75.1004 790.62 75.1004C799.457 75.1004 806.62 67.937 806.62 59.1004ZM676.897 96.5757H756.145V90.5757H676.897V96.5757ZM758.266 95.697L792.742 61.2218L788.499 56.9791L754.024 91.4544L758.266 95.697Z"
        fill="#4DCC00" />
    <path class="svg-elem-21"
        d="M750.325 408.464C748.668 408.464 747.325 409.808 747.325 411.464C747.325 413.121 748.668 414.464 750.325 414.464V408.464ZM829.573 411.464V414.464H830.815L831.694 413.586L829.573 411.464ZM880.048 376.989C880.048 368.153 872.885 360.989 864.048 360.989C855.212 360.989 848.048 368.153 848.048 376.989C848.048 385.826 855.212 392.989 864.048 392.989C872.885 392.989 880.048 385.826 880.048 376.989ZM750.325 414.464H829.573V408.464H750.325V414.464ZM831.694 413.586L866.169 379.11L861.927 374.868L827.452 409.343L831.694 413.586Z"
        fill="#00FFE0" />
    <path class="svg-elem-21"
        d="M588.246 607.436C586.589 607.436 585.246 606.093 585.246 604.436C585.246 602.779 586.589 601.436 588.246 601.436V607.436ZM667.494 604.436V601.436H668.737L669.616 602.315L667.494 604.436ZM717.97 638.911C717.97 647.748 710.806 654.911 701.97 654.911C693.133 654.911 685.97 647.748 685.97 638.911C685.97 630.075 693.133 622.911 701.97 622.911C710.806 622.911 717.97 630.075 717.97 638.911ZM588.246 601.436H667.494V607.436H588.246V601.436ZM669.616 602.315L704.091 636.79L699.848 641.033L665.373 606.557L669.616 602.315Z"
        fill="#BE0EDA" />
    <path class="svg-elem-22"
        d="M6.51662 599.572V595.78L14.4747 588.812C15.0713 588.273 15.5791 587.779 15.9982 587.331C16.4172 586.877 16.7368 586.422 16.957 585.968C17.1771 585.506 17.2872 585.006 17.2872 584.466C17.2872 583.862 17.1558 583.347 16.893 582.921C16.6303 582.488 16.268 582.154 15.8064 581.92C15.3447 581.685 14.8156 581.568 14.219 581.568C13.6153 581.568 13.0862 581.692 12.6317 581.941C12.1771 582.182 11.822 582.534 11.5663 582.996C11.3178 583.457 11.1935 584.018 11.1935 584.679H6.19702C6.19702 583.194 6.53083 581.912 7.19844 580.833C7.86606 579.753 8.80356 578.922 10.0109 578.34C11.2254 577.751 12.6352 577.456 14.2403 577.456C15.8952 577.456 17.3334 577.733 18.555 578.287C19.7766 578.841 20.7212 579.615 21.3888 580.609C22.0635 581.596 22.4009 582.743 22.4009 584.05C22.4009 584.881 22.234 585.705 21.9001 586.522C21.5663 587.339 20.9662 588.241 20.0997 589.228C19.2403 590.215 18.0188 591.398 16.4349 592.775L13.8249 595.183V595.322H22.6672V599.572H6.51662ZM34.6709 600.105C32.7675 600.105 31.1269 599.654 29.749 598.752C28.3712 597.843 27.3094 596.54 26.5637 594.842C25.8179 593.138 25.4486 591.089 25.4557 588.695C25.4628 586.302 25.8357 584.27 26.5743 582.601C27.3201 580.925 28.3783 579.65 29.749 578.777C31.1269 577.896 32.7675 577.456 34.6709 577.456C36.5743 577.456 38.215 577.896 39.5928 578.777C40.9777 579.65 42.0431 580.925 42.7888 582.601C43.5346 584.278 43.9039 586.309 43.8968 588.695C43.8968 591.096 43.5239 593.148 42.7782 594.853C42.0324 596.557 40.9706 597.861 39.5928 598.763C38.2221 599.657 36.5814 600.105 34.6709 600.105ZM34.6709 595.79C35.8073 595.79 36.727 595.211 37.4302 594.054C38.1333 592.889 38.4813 591.103 38.4742 588.695C38.4742 587.118 38.3144 585.819 37.9948 584.796C37.6752 583.766 37.2313 582.999 36.6631 582.495C36.0949 581.991 35.4309 581.738 34.6709 581.738C33.5417 581.738 32.629 582.31 31.933 583.454C31.237 584.59 30.8854 586.337 30.8783 588.695C30.8712 590.293 31.0239 591.618 31.3364 592.669C31.656 593.72 32.1034 594.505 32.6787 595.023C33.254 595.535 33.9181 595.79 34.6709 595.79ZM59.1365 595.481V594.331C59.1365 593.436 59.3282 592.608 59.7118 591.849C60.1024 591.089 60.667 590.478 61.4057 590.016C62.1443 589.555 63.0463 589.324 64.1116 589.324C65.1983 589.324 66.1109 589.555 66.8495 590.016C67.5953 590.471 68.1564 591.078 68.5328 591.838C68.9163 592.591 69.1081 593.422 69.1081 594.331V595.481C69.1081 596.376 68.9163 597.204 68.5328 597.964C68.1493 598.724 67.5846 599.334 66.8389 599.796C66.0932 600.258 65.1841 600.488 64.1116 600.488C63.0321 600.488 62.123 600.258 61.3843 599.796C60.6457 599.334 60.0846 598.724 59.7011 597.964C59.3247 597.204 59.1365 596.376 59.1365 595.481ZM62.5349 594.331V595.481C62.5349 595.936 62.645 596.373 62.8652 596.792C63.0924 597.211 63.5079 597.42 64.1116 597.42C64.7295 597.42 65.145 597.218 65.3581 596.813C65.5711 596.401 65.6777 595.957 65.6777 595.481V594.331C65.6777 593.855 65.5747 593.407 65.3687 592.988C65.1699 592.562 64.7508 592.349 64.1116 592.349C63.515 592.349 63.1031 592.562 62.8758 592.988C62.6485 593.407 62.5349 593.855 62.5349 594.331ZM47.8226 582.996V581.845C47.8226 580.936 48.0179 580.105 48.4085 579.352C48.8062 578.592 49.3744 577.985 50.113 577.53C50.8517 577.069 51.7466 576.838 52.7977 576.838C53.8843 576.838 54.797 577.069 55.5356 577.53C56.2814 577.985 56.846 578.592 57.2295 579.352C57.613 580.105 57.8048 580.936 57.8048 581.845V582.996C57.8048 583.905 57.6095 584.736 57.2189 585.488C56.8353 586.241 56.2707 586.841 55.525 587.289C54.7792 587.736 53.8701 587.96 52.7977 587.96C51.7253 587.96 50.8162 587.733 50.0704 587.278C49.3318 586.824 48.7707 586.22 48.3872 585.467C48.0108 584.714 47.8226 583.89 47.8226 582.996ZM51.253 581.845V582.996C51.253 583.471 51.363 583.915 51.5832 584.327C51.8105 584.732 52.2153 584.934 52.7977 584.934C53.4227 584.934 53.8382 584.732 54.0441 584.327C54.2572 583.915 54.3637 583.471 54.3637 582.996V581.845C54.3637 581.369 54.2643 580.922 54.0655 580.503C53.8666 580.077 53.444 579.863 52.7977 579.863C52.2011 579.863 51.7927 580.08 51.5726 580.513C51.3595 580.947 51.253 581.39 51.253 581.845ZM49.4312 599.572L64.4312 577.754H67.3396L52.3396 599.572H49.4312Z"
        fill="white" />
    <path class="svg-elem-22"
        d="M1.77299 49.7189V45.6067L10.7112 31.5229H14.3653V37.1053H12.2453L7.01447 45.3936V45.5641H19.9584V49.7189H1.77299ZM12.3092 53.3411V48.4618L12.4157 46.6614V31.5229H17.3483V53.3411H12.3092ZM31.0752 53.6394C29.4843 53.6394 28.0709 53.3517 26.8351 52.7764C25.5993 52.2011 24.6228 51.4092 23.9055 50.4007C23.1952 49.3922 22.8259 48.2345 22.7975 46.9277H27.9111C27.9537 47.7303 28.2805 48.3766 28.8912 48.8666C29.502 49.3496 30.23 49.5911 31.0752 49.5911C31.7357 49.5911 32.3216 49.4455 32.833 49.1543C33.3444 48.8631 33.7456 48.4547 34.0368 47.9291C34.328 47.3965 34.4701 46.7857 34.463 46.0967C34.4701 45.3936 34.3245 44.7793 34.0262 44.2537C33.735 43.7281 33.3302 43.3198 32.8117 43.0286C32.3003 42.7303 31.7108 42.5811 31.0432 42.5811C30.4111 42.574 29.811 42.7125 29.2428 42.9966C28.6817 43.2807 28.2556 43.6678 27.9644 44.1578L23.3089 43.2842L24.257 31.5229H38.2556V35.7736H28.593L28.0922 40.9192H28.2201C28.5823 40.3155 29.1647 39.8183 29.9672 39.4277C30.7769 39.03 31.6966 38.8311 32.7265 38.8311C34.0333 38.8311 35.1981 39.1365 36.2208 39.7473C37.2506 40.351 38.0603 41.1891 38.6498 42.2615C39.2464 43.334 39.5447 44.5627 39.5447 45.9476C39.5447 47.4462 39.1895 48.7743 38.4793 49.932C37.7762 51.0896 36.789 51.9987 35.5177 52.6592C34.2535 53.3127 32.7726 53.6394 31.0752 53.6394ZM54.6592 49.2502V48.0996C54.6592 47.2047 54.8509 46.3773 55.2345 45.6173C55.6251 44.8574 56.1897 44.2466 56.9284 43.785C57.667 43.3233 58.569 43.0925 59.6343 43.0925C60.721 43.0925 61.6336 43.3233 62.3722 43.785C63.118 44.2395 63.6791 44.8467 64.0555 45.6067C64.439 46.3595 64.6308 47.1905 64.6308 48.0996V49.2502C64.6308 50.145 64.439 50.9725 64.0555 51.7324C63.672 52.4923 63.1073 53.1031 62.3616 53.5648C61.6159 54.0264 60.7068 54.2573 59.6343 54.2573C58.5548 54.2573 57.6457 54.0264 56.907 53.5648C56.1684 53.1031 55.6073 52.4923 55.2238 51.7324C54.8474 50.9725 54.6592 50.145 54.6592 49.2502ZM58.0576 48.0996V49.2502C58.0576 49.7047 58.1677 50.1415 58.3879 50.5605C58.6151 50.9796 59.0306 51.1891 59.6343 51.1891C60.2522 51.1891 60.6677 50.9867 60.8808 50.5818C61.0938 50.1699 61.2004 49.726 61.2004 49.2502V48.0996C61.2004 47.6237 61.0974 47.1763 60.8914 46.7573C60.6926 46.3311 60.2735 46.1181 59.6343 46.1181C59.0377 46.1181 58.6258 46.3311 58.3985 46.7573C58.1713 47.1763 58.0576 47.6237 58.0576 48.0996ZM43.3453 36.7644V35.6138C43.3453 34.7047 43.5406 33.8737 43.9312 33.1209C44.3289 32.361 44.8971 31.7537 45.6357 31.2992C46.3744 30.8375 47.2693 30.6067 48.3204 30.6067C49.407 30.6067 50.3197 30.8375 51.0583 31.2992C51.8041 31.7537 52.3687 32.361 52.7522 33.1209C53.1357 33.8737 53.3275 34.7047 53.3275 35.6138V36.7644C53.3275 37.6735 53.1322 38.5044 52.7416 39.2573C52.358 40.0101 51.7934 40.6102 51.0477 41.0577C50.3019 41.5051 49.3928 41.7288 48.3204 41.7288C47.248 41.7288 46.3389 41.5016 45.5931 41.047C44.8545 40.5925 44.2934 39.9888 43.9099 39.236C43.5335 38.4831 43.3453 37.6592 43.3453 36.7644ZM46.7757 35.6138V36.7644C46.7757 37.2402 46.8857 37.6841 47.1059 38.096C47.3332 38.5009 47.738 38.7033 48.3204 38.7033C48.9454 38.7033 49.3609 38.5009 49.5669 38.096C49.7799 37.6841 49.8865 37.2402 49.8865 36.7644V35.6138C49.8865 35.1379 49.787 34.6905 49.5882 34.2715C49.3893 33.8453 48.9667 33.6323 48.3204 33.6323C47.7238 33.6323 47.3154 33.8489 47.0953 34.2821C46.8822 34.7154 46.7757 35.1592 46.7757 35.6138ZM44.9539 53.3411L59.9539 31.5229H62.8623L47.8623 53.3411H44.9539Z"
        fill="white" />
    <path class="svg-elem-22"
        d="M821.765 32.4184V54.2366H816.502V37.3403H816.374L811.495 40.3232V35.7636L816.875 32.4184H821.765ZM834.94 54.5349C833.35 54.5349 831.936 54.2472 830.7 53.6719C829.465 53.0967 828.488 52.3048 827.771 51.2962C827.06 50.2877 826.691 49.13 826.663 47.8232H831.776C831.819 48.6258 832.146 49.2721 832.756 49.7621C833.367 50.2451 834.095 50.4866 834.94 50.4866C835.601 50.4866 836.187 50.341 836.698 50.0498C837.21 49.7586 837.611 49.3502 837.902 48.8246C838.193 48.292 838.335 47.6812 838.328 46.9923C838.335 46.2891 838.19 45.6748 837.891 45.1492C837.6 44.6236 837.195 44.2153 836.677 43.9241C836.166 43.6258 835.576 43.4766 834.908 43.4766C834.276 43.4695 833.676 43.608 833.108 43.8921C832.547 44.1762 832.121 44.5633 831.83 45.0533L827.174 44.1798L828.122 32.4184H842.121V36.6691H832.458L831.957 41.8147H832.085C832.448 41.211 833.03 40.7138 833.832 40.3232C834.642 39.9255 835.562 39.7266 836.592 39.7266C837.899 39.7266 839.063 40.032 840.086 40.6428C841.116 41.2465 841.926 42.0846 842.515 43.157C843.112 44.2295 843.41 45.4582 843.41 46.8431C843.41 48.3417 843.055 49.6698 842.345 50.8275C841.641 51.9852 840.654 52.8942 839.383 53.5548C838.119 54.2082 836.638 54.5349 834.94 54.5349ZM858.524 50.1457V48.9951C858.524 48.1002 858.716 47.2728 859.1 46.5129C859.49 45.7529 860.055 45.1421 860.794 44.6805C861.532 44.2188 862.434 43.988 863.5 43.988C864.586 43.988 865.499 44.2188 866.237 44.6805C866.983 45.135 867.544 45.7423 867.921 46.5022C868.304 47.255 868.496 48.086 868.496 48.9951V50.1457C868.496 51.0405 868.304 51.868 867.921 52.6279C867.537 53.3879 866.973 53.9986 866.227 54.4603C865.481 54.9219 864.572 55.1528 863.5 55.1528C862.42 55.1528 861.511 54.9219 860.772 54.4603C860.034 53.9986 859.473 53.3879 859.089 52.6279C858.713 51.868 858.524 51.0405 858.524 50.1457ZM861.923 48.9951V50.1457C861.923 50.6002 862.033 51.037 862.253 51.456C862.48 51.8751 862.896 52.0846 863.5 52.0846C864.117 52.0846 864.533 51.8822 864.746 51.4773C864.959 51.0654 865.066 50.6215 865.066 50.1457V48.9951C865.066 48.5192 864.963 48.0718 864.757 47.6528C864.558 47.2266 864.139 47.0136 863.5 47.0136C862.903 47.0136 862.491 47.2266 862.264 47.6528C862.036 48.0718 861.923 48.5192 861.923 48.9951ZM847.21 37.6599V36.5093C847.21 35.6002 847.406 34.7692 847.796 34.0164C848.194 33.2565 848.762 32.6492 849.501 32.1947C850.24 31.733 851.134 31.5022 852.186 31.5022C853.272 31.5022 854.185 31.733 854.924 32.1947C855.669 32.6492 856.234 33.2565 856.617 34.0164C857.001 34.7692 857.193 35.6002 857.193 36.5093V37.6599C857.193 38.569 856.997 39.3999 856.607 40.1528C856.223 40.9056 855.659 41.5057 854.913 41.9532C854.167 42.4006 853.258 42.6244 852.186 42.6244C851.113 42.6244 850.204 42.3971 849.458 41.9425C848.72 41.488 848.159 40.8843 847.775 40.1315C847.399 39.3786 847.21 38.5548 847.21 37.6599ZM850.641 36.5093V37.6599C850.641 38.1357 850.751 38.5796 850.971 38.9915C851.198 39.3964 851.603 39.5988 852.186 39.5988C852.811 39.5988 853.226 39.3964 853.432 38.9915C853.645 38.5796 853.752 38.1357 853.752 37.6599V36.5093C853.752 36.0334 853.652 35.586 853.453 35.167C853.255 34.7408 852.832 34.5278 852.186 34.5278C851.589 34.5278 851.181 34.7444 850.96 35.1776C850.747 35.6109 850.641 36.0548 850.641 36.5093ZM848.819 54.2366L863.819 32.4184H866.728L851.728 54.2366H848.819Z"
        fill="white" />
    <path class="svg-elem-22"
        d="M901.532 380.184V376.392L909.49 369.424C910.086 368.885 910.594 368.391 911.013 367.944C911.432 367.489 911.752 367.034 911.972 366.58C912.192 366.118 912.302 365.618 912.302 365.078C912.302 364.474 912.171 363.959 911.908 363.533C911.645 363.1 911.283 362.766 910.822 362.532C910.36 362.297 909.831 362.18 909.234 362.18C908.63 362.18 908.101 362.304 907.647 362.553C907.192 362.794 906.837 363.146 906.581 363.608C906.333 364.069 906.209 364.63 906.209 365.291H901.212C901.212 363.806 901.546 362.525 902.214 361.445C902.881 360.365 903.819 359.534 905.026 358.952C906.241 358.363 907.65 358.068 909.255 358.068C910.91 358.068 912.349 358.345 913.57 358.899C914.792 359.453 915.736 360.227 916.404 361.221C917.079 362.208 917.416 363.355 917.416 364.662C917.416 365.493 917.249 366.317 916.915 367.134C916.581 367.951 915.981 368.853 915.115 369.84C914.255 370.827 913.034 372.01 911.45 373.387L908.84 375.795V375.934H917.682V380.184H901.532ZM929.686 380.717C927.783 380.717 926.142 380.266 924.764 379.364C923.386 378.455 922.325 377.152 921.579 375.454C920.833 373.75 920.464 371.701 920.471 369.307C920.478 366.914 920.851 364.882 921.589 363.213C922.335 361.537 923.393 360.262 924.764 359.389C926.142 358.508 927.783 358.068 929.686 358.068C931.589 358.068 933.23 358.508 934.608 359.389C935.993 360.262 937.058 361.537 937.804 363.213C938.55 364.89 938.919 366.921 938.912 369.307C938.912 371.708 938.539 373.76 937.793 375.465C937.048 377.169 935.986 378.473 934.608 379.375C933.237 380.27 931.597 380.717 929.686 380.717ZM929.686 376.402C930.822 376.402 931.742 375.824 932.445 374.666C933.148 373.501 933.496 371.715 933.489 369.307C933.489 367.73 933.33 366.431 933.01 365.408C932.69 364.378 932.246 363.611 931.678 363.107C931.11 362.603 930.446 362.351 929.686 362.351C928.557 362.351 927.644 362.922 926.948 364.066C926.252 365.202 925.901 366.949 925.893 369.307C925.886 370.905 926.039 372.23 926.352 373.281C926.671 374.332 927.119 375.117 927.694 375.635C928.269 376.147 928.933 376.402 929.686 376.402ZM954.152 376.093V374.943C954.152 374.048 954.343 373.221 954.727 372.461C955.118 371.701 955.682 371.09 956.421 370.628C957.159 370.167 958.061 369.936 959.127 369.936C960.213 369.936 961.126 370.167 961.865 370.628C962.61 371.083 963.171 371.69 963.548 372.45C963.931 373.203 964.123 374.034 964.123 374.943V376.093C964.123 376.988 963.931 377.816 963.548 378.576C963.164 379.336 962.6 379.946 961.854 380.408C961.108 380.87 960.199 381.101 959.127 381.101C958.047 381.101 957.138 380.87 956.399 380.408C955.661 379.946 955.1 379.336 954.716 378.576C954.34 377.816 954.152 376.988 954.152 376.093ZM957.55 374.943V376.093C957.55 376.548 957.66 376.985 957.88 377.404C958.108 377.823 958.523 378.032 959.127 378.032C959.745 378.032 960.16 377.83 960.373 377.425C960.586 377.013 960.693 376.569 960.693 376.093V374.943C960.693 374.467 960.59 374.02 960.384 373.601C960.185 373.174 959.766 372.961 959.127 372.961C958.53 372.961 958.118 373.174 957.891 373.601C957.664 374.02 957.55 374.467 957.55 374.943ZM942.838 363.608V362.457C942.838 361.548 943.033 360.717 943.424 359.964C943.821 359.204 944.39 358.597 945.128 358.142C945.867 357.681 946.762 357.45 947.813 357.45C948.899 357.45 949.812 357.681 950.551 358.142C951.296 358.597 951.861 359.204 952.245 359.964C952.628 360.717 952.82 361.548 952.82 362.457V363.608C952.82 364.517 952.625 365.348 952.234 366.101C951.85 366.853 951.286 367.454 950.54 367.901C949.794 368.348 948.885 368.572 947.813 368.572C946.74 368.572 945.831 368.345 945.086 367.89C944.347 367.436 943.786 366.832 943.402 366.079C943.026 365.326 942.838 364.503 942.838 363.608ZM946.268 362.457V363.608C946.268 364.083 946.378 364.527 946.598 364.939C946.826 365.344 947.23 365.547 947.813 365.547C948.438 365.547 948.853 365.344 949.059 364.939C949.272 364.527 949.379 364.083 949.379 363.608V362.457C949.379 361.981 949.279 361.534 949.081 361.115C948.882 360.689 948.459 360.476 947.813 360.476C947.216 360.476 946.808 360.692 946.588 361.125C946.375 361.559 946.268 362.003 946.268 362.457ZM944.446 380.184L959.446 358.366H962.355L947.355 380.184H944.446Z"
        fill="white" />
    <path class="svg-elem-22"
        d="M732.722 657.3V653.507L740.68 646.54C741.276 646 741.784 645.506 742.203 645.059C742.622 644.604 742.942 644.15 743.162 643.695C743.382 643.234 743.492 642.733 743.492 642.193C743.492 641.59 743.361 641.075 743.098 640.649C742.835 640.215 742.473 639.881 742.011 639.647C741.55 639.413 741.021 639.296 740.424 639.296C739.82 639.296 739.291 639.42 738.837 639.668C738.382 639.91 738.027 640.261 737.771 640.723C737.523 641.185 737.398 641.746 737.398 642.406H732.402C732.402 640.922 732.736 639.64 733.403 638.56C734.071 637.481 735.009 636.65 736.216 636.068C737.43 635.478 738.84 635.183 740.445 635.183C742.1 635.183 743.538 635.46 744.76 636.014C745.982 636.568 746.926 637.342 747.594 638.337C748.268 639.324 748.606 640.471 748.606 641.778C748.606 642.609 748.439 643.433 748.105 644.249C747.771 645.066 747.171 645.968 746.305 646.955C745.445 647.943 744.224 649.125 742.64 650.503L740.03 652.911V653.049H748.872V657.3H732.722ZM760.876 657.832C758.972 657.832 757.332 657.381 755.954 656.479C754.576 655.57 753.514 654.267 752.769 652.57C752.023 650.865 751.654 648.816 751.661 646.423C751.668 644.029 752.041 641.998 752.779 640.329C753.525 638.653 754.583 637.378 755.954 636.504C757.332 635.624 758.972 635.183 760.876 635.183C762.779 635.183 764.42 635.624 765.798 636.504C767.183 637.378 768.248 638.653 768.994 640.329C769.74 642.005 770.109 644.036 770.102 646.423C770.102 648.823 769.729 650.876 768.983 652.58C768.237 654.285 767.176 655.588 765.798 656.49C764.427 657.385 762.786 657.832 760.876 657.832ZM760.876 653.518C762.012 653.518 762.932 652.939 763.635 651.781C764.338 650.617 764.686 648.83 764.679 646.423C764.679 644.846 764.519 643.546 764.2 642.524C763.88 641.494 763.436 640.727 762.868 640.222C762.3 639.718 761.636 639.466 760.876 639.466C759.747 639.466 758.834 640.038 758.138 641.181C757.442 642.318 757.09 644.065 757.083 646.423C757.076 648.021 757.229 649.345 757.541 650.396C757.861 651.448 758.308 652.232 758.884 652.751C759.459 653.262 760.123 653.518 760.876 653.518ZM785.341 653.209V652.058C785.341 651.163 785.533 650.336 785.917 649.576C786.307 648.816 786.872 648.205 787.611 647.744C788.349 647.282 789.251 647.051 790.317 647.051C791.403 647.051 792.316 647.282 793.054 647.744C793.8 648.198 794.361 648.805 794.738 649.565C795.121 650.318 795.313 651.149 795.313 652.058V653.209C795.313 654.104 795.121 654.931 794.738 655.691C794.354 656.451 793.79 657.062 793.044 657.524C792.298 657.985 791.389 658.216 790.317 658.216C789.237 658.216 788.328 657.985 787.589 657.524C786.851 657.062 786.29 656.451 785.906 655.691C785.53 654.931 785.341 654.104 785.341 653.209ZM788.74 652.058V653.209C788.74 653.663 788.85 654.1 789.07 654.519C789.297 654.938 789.713 655.148 790.317 655.148C790.934 655.148 791.35 654.945 791.563 654.541C791.776 654.129 791.883 653.685 791.883 653.209V652.058C791.883 651.582 791.78 651.135 791.574 650.716C791.375 650.29 790.956 650.077 790.317 650.077C789.72 650.077 789.308 650.29 789.081 650.716C788.854 651.135 788.74 651.582 788.74 652.058ZM774.028 640.723V639.573C774.028 638.663 774.223 637.832 774.613 637.08C775.011 636.32 775.579 635.712 776.318 635.258C777.057 634.796 777.952 634.565 779.003 634.565C780.089 634.565 781.002 634.796 781.741 635.258C782.486 635.712 783.051 636.32 783.434 637.08C783.818 637.832 784.01 638.663 784.01 639.573V640.723C784.01 641.632 783.814 642.463 783.424 643.216C783.04 643.969 782.476 644.569 781.73 645.016C780.984 645.464 780.075 645.688 779.003 645.688C777.93 645.688 777.021 645.46 776.275 645.006C775.537 644.551 774.976 643.948 774.592 643.195C774.216 642.442 774.028 641.618 774.028 640.723ZM777.458 639.573V640.723C777.458 641.199 777.568 641.643 777.788 642.055C778.015 642.46 778.42 642.662 779.003 642.662C779.628 642.662 780.043 642.46 780.249 642.055C780.462 641.643 780.569 641.199 780.569 640.723V639.573C780.569 639.097 780.469 638.649 780.27 638.23C780.072 637.804 779.649 637.591 779.003 637.591C778.406 637.591 777.998 637.808 777.778 638.241C777.564 638.674 777.458 639.118 777.458 639.573ZM775.636 657.3L790.636 635.482H793.545L778.545 657.3H775.636Z"
        fill="white" />
    <defs>
        <filter id="filter0_bd_92_172" x="114.762" y="-12.3218" width="655.944" height="655.944"
            filterUnits="userSpaceOnUse" color-interpolation-filters="sRGB">
            <feFlood flood-opacity="0" result="BackgroundImageFix" />
            <feGaussianBlur in="BackgroundImageFix" stdDeviation="67.5" />
            <feComposite in2="SourceAlpha" operator="in" result="effect1_backgroundBlur_92_172" />
            <feColorMatrix in="SourceAlpha" type="matrix"
                values="0 0 0 0 0 0 0 0 0 0 0 0 0 0 0 0 0 0 127 0" result="hardAlpha" />
            <feMorphology radius="17" operator="erode" in="SourceAlpha"
                result="effect2_dropShadow_92_172" />
            <feOffset dx="26" dy="11" />
            <feGaussianBlur stdDeviation="14" />
            <feComposite in2="hardAlpha" operator="out" />
            <feColorMatrix type="matrix" values="0 0 0 0 0 0 0 0 0 1 0 0 0 0 0.94 0 0 0 0.15 0" />
            <feBlend mode="normal" in2="effect1_backgroundBlur_92_172"
                result="effect2_dropShadow_92_172" />
            <feBlend mode="normal" in="SourceGraphic" in2="effect2_dropShadow_92_172" result="shape" />
        </filter>
        <linearGradient id="paint0_linear_92_172" x1="691.672" y1="368.93" x2="442.734" y2="631.3"
            gradientUnits="userSpaceOnUse">
            <stop stop-color="#0D0C0C" stop-opacity="0" />
            <stop offset="1" stop-color="#DD0FFF" />
        </linearGradient>
        <linearGradient id="paint1_linear_92_172" x1="635.706" y1="171.481" x2="722.565"
            y2="413.255" gradientUnits="userSpaceOnUse">
            <stop stop-opacity="0" />
            <stop offset="0.985967" stop-color="#00FFE0" />
        </linearGradient>
        <linearGradient id="paint2_linear_92_172" x1="442.734" y1="-1.46511e-05" x2="688.538"
            y2="237.745" gradientUnits="userSpaceOnUse">
            <stop stop-opacity="0" />
            <stop offset="0.992757" stop-color="#61FF00" />
        </linearGradient>
        <linearGradient id="paint3_linear_92_172" x1="179.021" y1="456.237" x2="503.625" y2="631.3"
            gradientUnits="userSpaceOnUse">
            <stop stop-color="#097EEA" />
            <stop offset="0.9375" stop-opacity="0" />
        </linearGradient>
        <linearGradient id="paint4_linear_92_172" x1="230.062" y1="64.9209" x2="161.111"
            y2="412.807" gradientUnits="userSpaceOnUse">
            <stop stop-color="#FFDC15" />
            <stop offset="1" stop-color="#FFDC15" stop-opacity="0" />
        </linearGradient>
        <clipPath id="clip0_92_172">
            <rect width="252.52" height="252.52" fill="white" transform="translate(316.922 182.674)" />
        </clipPath>
    </defs>
</svg>